<?xml version="1.0" standalone="no"?><!DOCTYPE svg PUBLIC "-//W3C//DTD SVG 1.1//EN" "http://www.w3.org/Graphics/SVG/1.1/DTD/svg11.dtd"><svg t="1530000122704" class="icon" style="" viewBox="0 0 1024 1024" version="1.1" xmlns="http://www.w3.org/2000/svg" p-id="9842" xmlns:xlink="http://www.w3.org/1999/xlink" width="70" height="70"><defs><style type="text/css"></style></defs><path d="M935.424 51.2H88.576c-6.656 0-11.776 4.608-11.776 10.752v900.096c0 6.144 5.12 10.752 11.776 10.752H885.76c5.632 0 10.24-4.608 10.24-10.24v-30.72c0-5.632-4.608-10.24-10.24-10.24h-143.36v-230.4c0-19.968-15.872-35.84-35.84-35.84H317.44c-19.968 0-35.84 15.872-35.84 35.84v230.4H128V102.4h102.4v384c0 19.968 15.872 35.84 35.84 35.84h491.52c19.968 0 35.84-15.872 35.84-35.84V102.4h102.4v455.68c0 5.632 4.608 10.24 10.24 10.24h30.72c5.632 0 10.24-4.608 10.24-10.24V61.952c0-6.144-5.12-10.752-11.776-10.752zM332.8 706.56h358.4v209.92H435.2v-148.48c0-5.632-4.608-10.24-10.24-10.24h-30.72c-5.632 0-10.24 4.608-10.24 10.24v148.48H332.8v-209.92z m409.6-235.52H281.6V102.4h460.8v368.64z" fill="#1296db" p-id="9843"></path><path d="M343.04 209.92h337.92c5.632 0 10.24-4.608 10.24-10.24v-30.72c0-5.632-4.608-10.24-10.24-10.24H343.04c-5.632 0-10.24 4.608-10.24 10.24v30.72c0 5.632 4.608 10.24 10.24 10.24zM343.04 312.32h337.92c5.632 0 10.24-4.608 10.24-10.24v-30.72c0-5.632-4.608-10.24-10.24-10.24H343.04c-5.632 0-10.24 4.608-10.24 10.24v30.72c0 5.632 4.608 10.24 10.24 10.24zM343.04 414.72h337.92c5.632 0 10.24-4.608 10.24-10.24v-30.72c0-5.632-4.608-10.24-10.24-10.24H343.04c-5.632 0-10.24 4.608-10.24 10.24v30.72c0 5.632 4.608 10.24 10.24 10.24z" fill="#1296db" p-id="9844"></path></svg>