<?xml version="1.0" encoding="utf-8"?>
<!-- Generator: Adobe Illustrator 20.1.0, SVG Export Plug-In . SVG Version: 6.00 Build 0)  -->
<svg version="1.1" id="图层_1" xmlns="http://www.w3.org/2000/svg" xmlns:xlink="http://www.w3.org/1999/xlink" x="0px" y="0px"
	 viewBox="0 0 40 40" style="enable-background:new 0 0 40 40;" xml:space="preserve">
<style type="text/css">
	.st0{stroke:#FFFFFF;stroke-linecap:round;stroke-linejoin:round;stroke-miterlimit:10;}
	.st1{stroke:#FFFFFF;stroke-width:2;stroke-linecap:round;stroke-linejoin:round;stroke-miterlimit:10;}
</style>
<path fill="#fff" class="st0" d="M34.1,30.4"/>
<path fill="#fff" d="M37.2,39.9H3.8c-0.3,0-0.7-0.2-0.8-0.5c-0.2-0.3-0.2-0.7,0-1l11-22.4V5.9c0-0.6,0.4-1,1-1s1,0.4,1,1v10.4
	c0,0.2,0,0.3-0.1,0.4L5.4,37.9h30.1L25,17c-0.1-0.1-0.1-0.3-0.1-0.4V5.9c0-0.6,0.4-1,1-1s1,0.4,1,1v10.4l11.1,22.1
	c0.2,0.3,0.1,0.7,0,1C37.8,39.8,37.5,39.9,37.2,39.9z"/>
<path fill="#fff" class="st1" d="M24.9,15.9"/>
<path fill="#fff" class="st1" d="M24.9,5.9"/>
<path fill="#fff" class="st1" d="M14.9,5.9"/>
<path fill="#fff" d="M27.9,2.9h-15c-0.6,0-1-0.4-1-1s0.4-1,1-1h15c0.6,0,1,0.4,1,1S28.5,2.9,27.9,2.9z"/>
<circle fill="#fff" cx="18.9" cy="20.9" r="1.9"/>
<path fill="#fff" d="M16.7,36.4c-2.6,0-4.8-2.1-4.8-4.8s2.1-4.8,4.8-4.8s4.7,2.1,4.7,4.8S19.3,36.4,16.7,36.4z M16.7,28.9
	c-1.5,0-2.8,1.2-2.8,2.8s1.2,2.8,2.8,2.8s2.8-1.2,2.8-2.8S18.2,28.9,16.7,28.9z"/>
</svg>
