<?xml version="1.0" encoding="utf-8"?>
<!-- Generator: Adobe Illustrator 20.1.0, SVG Export Plug-In . SVG Version: 6.00 Build 0)  -->
<svg version="1.1" id="图层_1" xmlns="http://www.w3.org/2000/svg" xmlns:xlink="http://www.w3.org/1999/xlink" x="0px" y="0px"
	 viewBox="0 0 40 40" style="enable-background:new 0 0 40 40;" xml:space="preserve">
	<path fill="#fff" d="M37,12H13c-0.6,0-1-0.4-1-1s0.4-1,1-1h24c0.6,0,1,0.4,1,1S37.6,12,37,12z"/>
	<path fill="#fff" d="M29,19.1H13c-0.6,0-1-0.4-1-1s0.4-1,1-1h16c0.6,0,1,0.4,1,1S29.6,19.1,29,19.1z"/>
	<path fill="#fff" d="M21,25.1h-8c-0.6,0-1-0.4-1-1s0.4-1,1-1h8c0.6,0,1,0.4,1,1S21.6,25.1,21,25.1z"/>
	<path fill="#fff" d="M18,33.1c-8.8,0-16-7.2-16-16s7.2-16,16-16s16,7.2,16,16S26.8,33.1,18,33.1z M18,3.1c-7.7,0-14,6.3-14,14s6.3,14,14,14
		s14-6.3,14-14S25.7,3.1,18,3.1z"/>
	<path fill="#fff" d="M38,39.1H10V34c0-0.6,0.4-1,1-1s1,0.4,1,1v3.1h24v-23c0-0.6,0.4-1,1-1s1,0.4,1,1V39.1z"/>
</svg>
