<?xml version="1.0" encoding="utf-8"?>
<!-- Generator: Adobe Illustrator 20.1.0, SVG Export Plug-In . SVG Version: 6.00 Build 0)  -->
<svg version="1.1" id="图层_1" xmlns="http://www.w3.org/2000/svg" xmlns:xlink="http://www.w3.org/1999/xlink" x="0px" y="0px"
	 viewBox="0 0 40 40" style="enable-background:new 0 0 40 40;" xml:space="preserve">
<g>
	<path fill="#fff" d="M11.7,36.9c-0.5,0-1-0.1-1.4-0.4c-3.7-2.1-0.8-11.6,4-19.9c2.5-4.3,5.3-8,8-10.6c3-2.8,5.5-3.8,7.2-2.8
		c2.5,1.4,1.7,5.8,0.7,9.3c-0.2,0.5-0.7,0.8-1.2,0.7c-0.5-0.2-0.8-0.7-0.7-1.2c1.2-4.2,1-6.5,0.2-7c-0.6-0.4-2.2,0.1-4.8,2.5
		c-2.5,2.4-5.3,6-7.6,10.1c-5.3,9.1-6.3,16.2-4.7,17.1c0.7,0.4,2.5-0.3,4.9-2.6c0.4-0.4,1-0.4,1.4,0c0.4,0.4,0.4,1,0,1.4
		C15.3,35.7,13.3,36.9,11.7,36.9z"/>
	<path fill="#fff" d="M31.9,26c-0.4,0-0.9-0.3-1-0.8c-0.1-0.5,0.2-1.1,0.7-1.2c3.9-1,5.7-2.3,5.7-3.2c0-0.7-1.2-1.9-4.6-2.9
		c-3.4-1-7.8-1.6-12.6-1.5c-10.5,0-17.2,2.7-17.2,4.5c0,0.8,1.5,2,4.9,3c0.5,0.2,0.8,0.7,0.7,1.2c-0.2,0.5-0.7,0.8-1.2,0.7
		c-4.2-1.2-6.4-2.9-6.4-4.9c0-4.2,9.6-6.5,19.2-6.5c4.9,0,9.6,0.6,13.2,1.6c4,1.2,6.1,2.8,6.1,4.8c0,2.2-2.5,3.9-7.2,5.2
		C32.1,26,32,26,31.9,26z"/>
	<path fill="#fff" d="M28.3,37.7c-1.6,0-3.5-1.1-5.8-3.2c-2.7-2.5-5.5-6.3-8-10.6c-2.5-4.3-4.3-8.6-5.2-12.2c-1-4-0.6-6.7,1.1-7.7
		c1.8-1,4.3,0,7.5,3c0.4,0.4,0.4,1,0,1.4c-0.4,0.4-1,0.4-1.4,0c-2.6-2.5-4.4-3.2-5.1-2.8c-0.6,0.4-1,2-0.2,5.5
		c0.8,3.4,2.6,7.5,5,11.7c2.4,4.1,5.1,7.7,7.7,10.1c2.6,2.4,4.2,2.9,4.8,2.5c0.8-0.5,1-2.7-0.2-6.8c-0.7-2.4-1.9-5.2-3.3-7.9
		c-0.3-0.5-0.1-1.1,0.4-1.3c0.5-0.3,1.1-0.1,1.3,0.4c1.5,2.9,2.7,5.7,3.4,8.3c1.4,4.8,1.2,8-0.7,9.1C29.3,37.5,28.8,37.7,28.3,37.7z
		"/>
	<path fill="#fff" d="M21.1,24c-1.8,0-3.3-1.5-3.3-3.3c0-1.8,1.5-3.3,3.3-3.3s3.3,1.5,3.3,3.3C24.4,22.5,22.9,24,21.1,24z M21.1,19.3
		c-0.7,0-1.3,0.6-1.3,1.3s0.6,1.3,1.3,1.3s1.3-0.6,1.3-1.3S21.8,19.3,21.1,19.3z"/>
</g>
</svg>
