<?xml version="1.0"?>
<svg xmlns="http://www.w3.org/2000/svg" xmlns:xlink="http://www.w3.org/1999/xlink" version="1" id="Appointment" x="0px" y="0px" viewBox="0 0 491.102 491.102" style="enable-background:new 0 0 491.102 491.102;" xml:space="preserve" width="512px" height="512px" class=""><g><g>
	<g>
		<path style="fill:#0066FF" d="M425.796,276.898c-4.328,0-7.837-3.509-7.837-7.837V67.918h-65.306    c-4.328,0-7.837-3.509-7.837-7.837s3.509-7.837,7.837-7.837h73.143c4.328,0,7.837,3.509,7.837,7.837v208.98    C433.633,273.389,430.124,276.898,425.796,276.898z" data-original="#00ACEA" class="active-path" data-old_color="#00ACEA"/>
		<path style="fill:#0066FF" d="M281.6,67.918H150.988c-4.328,0-7.837-3.509-7.837-7.837s3.509-7.837,7.837-7.837H281.6    c4.328,0,7.837,3.509,7.837,7.837S285.928,67.918,281.6,67.918z" data-original="#00ACEA" class="active-path" data-old_color="#00ACEA"/>
		<path style="fill:#0066FF" d="M293.094,412.735H7.837c-4.328,0-7.837-3.509-7.837-7.837V60.082c0-4.328,3.509-7.837,7.837-7.837    h62.694c4.328,0,7.837,3.509,7.837,7.837s-3.509,7.837-7.837,7.837H15.673v329.143h277.42c4.328,0,7.837,3.509,7.837,7.837    S297.422,412.735,293.094,412.735L293.094,412.735z" data-original="#00ACEA" class="active-path" data-old_color="#00ACEA"/>
		<path style="fill:#0066FF" d="M321.306,99.265c-4.328,0-7.837-3.509-7.837-7.837V28.735c0-4.328,3.509-7.837,7.837-7.837    s7.837,3.509,7.837,7.837v62.694C329.143,95.757,325.634,99.265,321.306,99.265z" data-original="#00ACEA" class="active-path" data-old_color="#00ACEA"/>
		<path style="fill:#0066FF" d="M112.327,99.265c-4.328,0-7.837-3.509-7.837-7.837V28.735c0-4.328,3.509-7.837,7.837-7.837    c4.328,0,7.837,3.509,7.837,7.837v62.694C120.163,95.757,116.655,99.265,112.327,99.265z" data-original="#00ACEA" class="active-path" data-old_color="#00ACEA"/>
		<path style="fill:#0066FF" d="M373.551,167.184H60.082c-4.328,0-7.837-3.509-7.837-7.837c0-4.328,3.509-7.837,7.837-7.837    h313.469c4.328,0,7.837,3.509,7.837,7.837C381.388,163.675,377.879,167.184,373.551,167.184z" data-original="#00ACEA" class="active-path" data-old_color="#00ACEA"/>
		<path style="fill:#0066FF" d="M300.408,229.878H60.082c-4.328,0-7.837-3.509-7.837-7.837c0-4.328,3.509-7.837,7.837-7.837    h240.327c4.328,0,7.837,3.509,7.837,7.837C308.245,226.369,304.736,229.878,300.408,229.878z" data-original="#00ACEA" class="active-path" data-old_color="#00ACEA"/>
		<path style="fill:#0066FF" d="M195.918,292.571H60.082c-4.328,0-7.837-3.509-7.837-7.837c0-4.328,3.509-7.837,7.837-7.837    h135.837c4.328,0,7.837,3.509,7.837,7.837C203.755,289.063,200.246,292.571,195.918,292.571z" data-original="#00ACEA" class="active-path" data-old_color="#00ACEA"/>
	</g>
	<g>
		<path style="fill:#E83E8C" d="M384,470.204c-59.151,0-107.102-47.951-107.102-107.102S324.849,256,384,256    s107.102,47.951,107.102,107.102S443.151,470.204,384,470.204z M384,271.673c-50.495,0-91.429,40.934-91.429,91.429    s40.934,91.429,91.429,91.429s91.429-40.934,91.429-91.429C475.143,312.726,434.376,271.959,384,271.673z" data-original="#00EFD1" class="" data-old_color="#00EFD1"/>
		<path style="fill:#E83E8C" d="M432.588,376.163H384c-4.328,0-7.837-3.509-7.837-7.837v-62.694c0-4.328,3.509-7.837,7.837-7.837    s7.837,3.509,7.837,7.837v54.857h40.751c4.328,0,7.837,3.509,7.837,7.837S436.916,376.163,432.588,376.163z" data-original="#00EFD1" class="" data-old_color="#00EFD1"/>
	</g>
</g></g> </svg>
