<?xml version="1.0"?>
<svg xmlns="http://www.w3.org/2000/svg" xmlns:xlink="http://www.w3.org/1999/xlink" version="1" id="Doctor" x="0px" y="0px" viewBox="0 0 485.763 485.763" style="enable-background:new 0 0 485.763 485.763;" xml:space="preserve" width="512px" height="512px" class=""><g><g>
	<path style="fill:#E83E8C" d="M483.866,337.833c-3.224-3.052-8.27-3.052-11.494,0l-42.841,42.841l-37.094-37.094l42.318-42.318   c1.319-1.423,2.064-3.284,2.09-5.224c-0.138-2.075-0.863-4.068-2.09-5.747L269.662,127.286   c-10.662-10.18-24.973-15.641-39.706-15.151h-0.522c-14.937-0.202-29.366,5.419-40.229,15.673l-6.792,6.269L88.895,40.037   c-3.047-2.987-7.924-2.987-10.971,0c-2.987,3.047-2.987,7.924,0,10.971l93.518,93.518l-5.224,5.224   c-10.493,10.749-16.314,25.208-16.196,40.229c-0.007,14.999,5.798,29.418,16.196,40.229l19.331,18.808l0,0l45.453,45.453l0,0   l45.453,45.976l0,0l54.335,53.812c1.393,1.365,3.274,2.118,5.224,2.09c2.12,0.11,4.193-0.644,5.747-2.09l39.706-39.706   l37.094,37.094l-42.841,42.841c-2.529,3.22-2.529,7.751,0,10.971c2.943,3.174,7.901,3.362,11.075,0.419   c0.145-0.134,0.285-0.274,0.419-0.419l96.653-96.653C486.395,345.584,486.395,341.053,483.866,337.833z M336.013,377.539   l-42.841-42.841l27.167-27.167c3.462-2.597,4.164-7.509,1.567-10.971c-2.597-3.462-7.509-4.164-10.971-1.567   c-0.594,0.446-1.122,0.973-1.567,1.567l-27.167,27.167l-34.482-34.482l50.678-50.155c2.597-3.462,1.895-8.375-1.567-10.971   c-2.786-2.09-6.618-2.09-9.404,0l-50.678,50.155l-34.482-34.482l27.167-27.167c3.052-3.224,3.052-8.27,0-11.494   c-3.047-2.987-7.924-2.987-10.971,0l-27.167,27.167l-13.584-13.584c-16.014-15.814-16.176-41.616-0.362-57.63   c0.12-0.122,0.241-0.242,0.362-0.362l22.988-21.943c7.614-7.529,18.041-11.51,28.735-10.971h0.522   c10.971,0,23.51,3.135,28.735,10.971v-1.045l159.347,158.302L336.013,377.539z" data-original="#00EFD1" class="active-path" data-old_color="#00EFD1"/>
	<path style="fill:#0066FF" d="M59.115,286.11L59.115,286.11c-15.91-0.325-31.001-7.116-41.796-18.808   c-23.092-24.701-23.092-63.071,0-87.771l36.571-38.661c3.047-2.987,7.924-2.987,10.971,0l36.571,38.661   c23.092,24.701,23.092,63.071,0,87.771C90.551,279.176,75.221,285.99,59.115,286.11z M59.638,157.588l-30.824,32.914   c-17.2,18.773-17.2,47.578,0,66.351c7.932,8.322,18.812,13.2,30.302,13.584l0,0c11.686-0.189,22.8-5.087,30.824-13.584   c17.714-18.57,17.714-47.781,0-66.351L59.638,157.588z" data-original="#00ACEA" class="" data-old_color="#00ACEA"/>
</g></g> </svg>
