<?xml version="1.0"?>
<svg xmlns="http://www.w3.org/2000/svg" xmlns:xlink="http://www.w3.org/1999/xlink" version="1" id="Operation" x="0px" y="0px" viewBox="0 0 433.439 433.439" style="enable-background:new 0 0 433.439 433.439;" xml:space="preserve" width="512px" height="512px" class=""><g><g>
	<g>
		<path style="fill:#E83E8C" d="M55.709,429.879c-2.183-0.086-4.246-1.024-5.747-2.612L1.897,379.724    c-2.529-3.22-2.529-7.751,0-10.971l59.559-59.559c-19.252-29.815-10.69-69.592,19.125-88.844    c25.366-16.38,58.715-12.89,80.14,8.387c7.007,6.901,12.364,15.294,15.673,24.555c9.261,3.309,17.655,8.667,24.555,15.673    c25.008,25.183,24.866,65.871-0.317,90.879c-21.425,21.276-54.774,24.766-80.14,8.387l-59.559,59.037    C59.63,428.825,57.738,429.772,55.709,429.879z M18.615,373.977l37.094,37.094l58.514-58.514    c2.676-3.026,7.298-3.311,10.324-0.635c0.042,0.037,0.083,0.075,0.125,0.113c19.284,15.74,47.394,14.153,64.784-3.657    c18.899-18.228,19.444-48.325,1.216-67.225c-0.398-0.413-0.803-0.818-1.216-1.216c-5.821-6.108-13.245-10.453-21.42-12.539    c-2.731-0.875-4.872-3.016-5.747-5.747c-2.074-8.332-6.413-15.926-12.539-21.943c-18.034-19.909-48.793-21.43-68.702-3.396    s-21.43,48.793-3.396,68.702c2.744,2.964,2.566,7.592-0.398,10.336c-0.041,0.038-0.083,0.076-0.125,0.113L18.615,373.977z" data-original="#00EFD1" class="" data-old_color="#00EFD1"/>
		<path style="fill:#E83E8C" d="M290.811,242.842c-17.012-0.16-33.302-6.901-45.453-18.808    c-6.677-7.063-11.833-15.42-15.151-24.555c-9.32-3.188-17.74-8.562-24.555-15.673c-12.05-12.057-18.815-28.407-18.808-45.453    c0.16-17.012,6.901-33.302,18.808-45.453c21.571-21.244,54.98-24.715,80.457-8.359l67.396-67.396    c3.047-2.987,7.924-2.987,10.971,0l48.065,48.065c1.227,1.679,1.952,3.672,2.09,5.747c-0.231,1.894-0.951,3.694-2.09,5.224    l-67.396,67.396c19.045,30.289,9.929,70.282-20.36,89.327C314.603,239.307,302.839,242.748,290.811,242.842z M251.105,89.765    c-13.024-0.11-25.51,5.187-34.482,14.629c-18.794,18.943-18.794,49.498,0,68.441c6.016,6.125,13.611,10.465,21.943,12.539    c2.613,1.062,4.685,3.134,5.747,5.747c7.009,25.903,33.688,41.22,59.591,34.211c8.066-2.182,15.432-6.408,21.388-12.268    c17.97-17.596,19.336-46.07,3.135-65.306c-2.296-3.175-2.079-7.519,0.522-10.449l66.873-66.351l-37.094-37.094l-66.351,66.351    c-2.676,3.026-7.298,3.311-10.324,0.635c-0.042-0.037-0.083-0.075-0.125-0.113C273.232,93.625,262.339,89.748,251.105,89.765z" data-original="#00EFD1" class="" data-old_color="#00EFD1"/>
	</g>
	<g>
		<path style="fill:#0066FF" d="M425.603,279.936h-54.335c-4.328,0-7.837-3.509-7.837-7.837c0-4.328,3.509-7.837,7.837-7.837    h54.335c4.328,0,7.837,3.509,7.837,7.837C433.439,276.427,429.931,279.936,425.603,279.936z" data-original="#00ACEA" class="active-path" data-old_color="#00ACEA"/>
		<path style="fill:#0066FF" d="M66.68,160.295H12.346c-4.328,0-7.837-3.509-7.837-7.837c0-4.328,3.509-7.837,7.837-7.837H66.68    c4.328,0,7.837,3.509,7.837,7.837C74.517,156.787,71.008,160.295,66.68,160.295z" data-original="#00ACEA" class="active-path" data-old_color="#00ACEA"/>
		<path style="fill:#0066FF" d="M152.884,73.569c-4.328,0-7.837-3.509-7.837-7.837V11.397c0-4.328,3.509-7.837,7.837-7.837    s7.837,3.509,7.837,7.837v54.335c0.3,4.028-2.723,7.537-6.752,7.837C153.608,73.596,153.246,73.596,152.884,73.569z" data-original="#00ACEA" class="active-path" data-old_color="#00ACEA"/>
		<path style="fill:#0066FF" d="M273.048,420.997c-4.328,0-7.837-3.509-7.837-7.837v-54.335c0-4.328,3.509-7.837,7.837-7.837    c4.328,0,7.837,3.509,7.837,7.837v54.335C280.884,417.489,277.376,420.997,273.048,420.997z" data-original="#00ACEA" class="active-path" data-old_color="#00ACEA"/>
		<path style="fill:#0066FF" d="M91.235,98.124c-2.12,0.11-4.193-0.644-5.747-2.09L46.827,57.373c-2.529-3.22-2.529-7.751,0-10.971    c3.224-3.052,8.27-3.052,11.494,0L96.46,84.54c3.052,3.224,3.052,8.27,0,11.494C95.102,97.453,93.197,98.215,91.235,98.124z" data-original="#00ACEA" class="active-path" data-old_color="#00ACEA"/>
		<path style="fill:#0066FF" d="M361.864,368.752c-2.12,0.11-4.193-0.644-5.747-2.09l-38.139-38.661    c-2.597-3.462-1.895-8.375,1.567-10.971c2.786-2.09,6.618-2.09,9.404,0l38.139,38.661c3.03,2.672,3.32,7.294,0.648,10.324    c-0.202,0.229-0.419,0.446-0.648,0.648C365.775,368.145,363.838,368.92,361.864,368.752z" data-original="#00ACEA" class="active-path" data-old_color="#00ACEA"/>
	</g>
</g></g> </svg>
