<?xml version="1.0"?>
<svg xmlns="http://www.w3.org/2000/svg" xmlns:xlink="http://www.w3.org/1999/xlink" version="1" id="Revenue" x="0px" y="0px" viewBox="0 0 512 512" style="enable-background:new 0 0 512 512;" xml:space="preserve" width="512px" height="512px" class=""><g><g>
	<g>
		<path d="M409.219,110.704c-3.051-2.815-7.805-2.624-10.618,0.426l-86.722,93.947l-42.562-42.563    c-2.936-2.935-7.693-2.935-10.628,0L143.768,277.436l-34.764-34.765c-2.936-2.935-7.693-2.935-10.628,0L2.189,338.859    c-2.735,2.735-2.918,7.255-0.399,10.196c2.81,3.282,7.971,3.487,11.028,0.431l90.873-90.874l34.764,34.765    c2.936,2.935,7.693,2.935,10.628,0l114.92-114.921l42.78,42.781c1.446,1.446,3.434,2.239,5.464,2.199    c2.045-0.041,3.986-0.914,5.371-2.417l92.027-99.695C412.46,118.274,412.269,113.519,409.219,110.704z" data-original="#000000" class="active-path" data-old_color="#000000" fill="#e83e8c"/>
	</g>
</g><g>
	<g>
		<path d="M511.979,7.369C511.905,3.333,508.509,0,504.473,0h-64.125c-4.151,0-7.515,3.365-7.515,7.515    c0,4.15,3.364,7.515,7.515,7.515h46.963l-62.113,67.289c-2.555,2.768-2.636,7.149-0.172,10.003    c2.894,3.351,8.213,3.443,11.215,0.191l60.719-65.779V71.64c0,4.15,3.364,7.515,7.515,7.515c4.151,0,7.515-3.365,7.515-7.515    V7.515C511.987,7.466,511.98,7.419,511.979,7.369z" data-original="#000000" class="active-path" data-old_color="#000000" fill="#e83e8c"/>
	</g>
</g><g>
	<g>
		<path d="M31.549,344.673c-4.151,0-7.515,3.365-7.515,7.515v8.016c0,4.15,3.364,7.515,7.515,7.515s7.515-3.365,7.515-7.515v-8.016    C39.064,348.038,35.699,344.673,31.549,344.673z" data-original="#000000" class="active-path" data-old_color="#000000" fill="#0066ff"/>
	</g>
</g><g>
	<g>
		<path d="M31.549,437.855c-4.151,0-7.515,3.365-7.515,7.515v17.033c0,4.15,3.364,7.515,7.515,7.515s7.515-3.365,7.515-7.515V445.37    C39.064,441.22,35.699,437.855,31.549,437.855z" data-original="#000000" class="active-path" data-old_color="#000000" fill="#0066ff"/>
	</g>
</g><g>
	<g>
		<path d="M31.549,386.755c-4.151,0-7.515,3.365-7.515,7.515v17.033c0,4.15,3.364,7.515,7.515,7.515s7.515-3.365,7.515-7.515V394.27    C39.064,390.12,35.699,386.755,31.549,386.755z" data-original="#000000" class="active-path" data-old_color="#000000" fill="#0066ff"/>
	</g>
</g><g>
	<g>
		<path d="M143.768,312.611c-4.151,0-7.515,3.365-7.515,7.515v8.016c0,4.15,3.364,7.515,7.515,7.515s7.515-3.365,7.515-7.515v-8.016    C151.283,315.975,147.918,312.611,143.768,312.611z" data-original="#000000" class="active-path" data-old_color="#000000" fill="#0066ff"/>
	</g>
</g><g>
	<g>
		<path d="M143.768,397.14c-4.151,0-7.515,3.365-7.515,7.515v15.302c0,4.15,3.364,7.515,7.515,7.515s7.515-3.365,7.515-7.515    v-15.302C151.283,400.504,147.918,397.14,143.768,397.14z" data-original="#000000" class="active-path" data-old_color="#000000" fill="#0066ff"/>
	</g>
</g><g>
	<g>
		<path d="M143.768,351.231c-4.151,0-7.515,3.365-7.515,7.515v15.303c0,4.15,3.364,7.515,7.515,7.515s7.515-3.365,7.515-7.515    v-15.303C151.283,354.596,147.918,351.231,143.768,351.231z" data-original="#000000" class="active-path" data-old_color="#000000" fill="#0066ff"/>
	</g>
</g><g>
	<g>
		<path d="M143.768,443.047c-4.151,0-7.515,3.365-7.515,7.515v15.303c0,4.15,3.364,7.515,7.515,7.515s7.515-3.365,7.515-7.515    v-15.303C151.283,446.412,147.918,443.047,143.768,443.047z" data-original="#000000" class="active-path" data-old_color="#000000" fill="#0066ff"/>
	</g>
</g><g>
	<g>
		<path d="M312.097,240.47c-4.151,0-7.515,3.365-7.515,7.515V256c0,4.15,3.364,7.515,7.515,7.515c4.151,0,7.515-3.365,7.515-7.515    v-8.016C319.611,243.834,316.247,240.47,312.097,240.47z" data-original="#000000" class="active-path" data-old_color="#000000" fill="#0066ff"/>
	</g>
</g><g>
	<g>
		<path d="M312.097,385.897c-4.151,0-7.515,3.365-7.515,7.515v17.177c0,4.15,3.364,7.515,7.515,7.515    c4.151,0,7.515-3.365,7.515-7.515v-17.177C319.611,389.26,316.247,385.897,312.097,385.897z" data-original="#000000" class="active-path" data-old_color="#000000" fill="#0066ff"/>
	</g>
</g><g>
	<g>
		<path d="M312.097,437.425c-4.151,0-7.515,3.365-7.515,7.515v17.177c0,4.15,3.364,7.515,7.515,7.515    c4.151,0,7.515-3.365,7.515-7.515V444.94C319.611,440.79,316.247,437.425,312.097,437.425z" data-original="#000000" class="active-path" data-old_color="#000000" fill="#0066ff"/>
	</g>
</g><g>
	<g>
		<path d="M312.097,282.838c-4.151,0-7.515,3.365-7.515,7.515v17.177c0,4.15,3.364,7.515,7.515,7.515    c4.151,0,7.515-3.365,7.515-7.515v-17.177C319.611,286.203,316.247,282.838,312.097,282.838z" data-original="#000000" class="active-path" data-old_color="#000000" fill="#0066ff"/>
	</g>
</g><g>
	<g>
		<path d="M312.097,334.367c-4.151,0-7.515,3.365-7.515,7.515v17.177c0,4.15,3.364,7.515,7.515,7.515    c4.151,0,7.515-3.365,7.515-7.515v-17.177C319.611,337.732,316.247,334.367,312.097,334.367z" data-original="#000000" class="active-path" data-old_color="#000000" fill="#0066ff"/>
	</g>
</g><g>
	<g>
		<path d="M448.363,96.188c-4.151,0-7.515,3.365-7.515,7.515v8.016c0,4.15,3.364,7.515,7.515,7.515s7.515-3.365,7.515-7.515v-8.016    C455.878,99.552,452.513,96.188,448.363,96.188z" data-original="#000000" class="active-path" data-old_color="#000000" fill="#0066ff"/>
	</g>
</g><g>
	<g>
		<path d="M448.363,187.845c-4.151,0-7.515,3.365-7.515,7.515v16.729c0,4.15,3.364,7.515,7.515,7.515s7.515-3.365,7.515-7.515    V195.36C455.878,191.209,452.513,187.845,448.363,187.845z" data-original="#000000" class="active-path" data-old_color="#000000" fill="#0066ff"/>
	</g>
</g><g>
	<g>
		<path d="M448.363,238.03c-4.151,0-7.515,3.365-7.515,7.515v16.729c0,4.15,3.364,7.515,7.515,7.515s7.515-3.365,7.515-7.515    v-16.729C455.878,241.394,452.513,238.03,448.363,238.03z" data-original="#000000" class="active-path" data-old_color="#000000" fill="#0066ff"/>
	</g>
</g><g>
	<g>
		<path d="M448.363,137.66c-4.151,0-7.515,3.365-7.515,7.515v16.729c0,4.15,3.364,7.515,7.515,7.515s7.515-3.365,7.515-7.515    v-16.729C455.878,141.024,452.513,137.66,448.363,137.66z" data-original="#000000" class="active-path" data-old_color="#000000" fill="#0066ff"/>
	</g>
</g><g>
	<g>
		<path d="M448.363,288.215c-4.151,0-7.515,3.365-7.515,7.515v16.729c0,4.15,3.364,7.515,7.515,7.515s7.515-3.365,7.515-7.515    V295.73C455.878,291.58,452.513,288.215,448.363,288.215z" data-original="#000000" class="active-path" data-old_color="#000000" fill="#0066ff"/>
	</g>
</g><g>
	<g>
		<path d="M448.363,438.77c-4.151,0-7.515,3.365-7.515,7.515v16.728c0,4.15,3.364,7.515,7.515,7.515s7.515-3.365,7.515-7.515    v-16.728C455.878,442.135,452.513,438.77,448.363,438.77z" data-original="#000000" class="active-path" data-old_color="#000000" fill="#0066ff"/>
	</g>
</g><g>
	<g>
		<path d="M448.363,388.585c-4.151,0-7.515,3.365-7.515,7.515v16.729c0,4.15,3.364,7.515,7.515,7.515s7.515-3.365,7.515-7.515V396.1    C455.878,391.95,452.513,388.585,448.363,388.585z" data-original="#000000" class="active-path" data-old_color="#000000" fill="#0066ff"/>
	</g>
</g><g>
	<g>
		<path d="M448.363,338.4c-4.151,0-7.515,3.365-7.515,7.515v16.729c0,4.15,3.364,7.515,7.515,7.515s7.515-3.365,7.515-7.515v-16.729    C455.878,341.764,452.513,338.4,448.363,338.4z" data-original="#000000" class="active-path" data-old_color="#000000" fill="#0066ff"/>
	</g>
</g><g>
	<g>
		<path d="M175.831,87.17c4.151,0,7.515-3.365,7.515-7.515V71.64c0-17.403-14.159-31.562-31.562-31.562h-0.501V23.546    c0-4.15-3.364-7.515-7.515-7.515s-7.515,3.365-7.515,7.515v16.707c-17.973,1.767-32.063,16.965-32.063,35.395    c0,19.613,15.956,35.569,35.569,35.569h8.016c11.326,0,20.54,9.214,20.54,20.54s-9.215,20.54-20.54,20.54h-12.023    c-9.116,0-16.532-7.416-16.532-16.532c0-4.15-3.364-7.515-7.515-7.515s-7.515,3.365-7.515,7.515    c0,17.403,14.159,31.562,31.562,31.562h0.501v16.532c0,4.15,3.364,7.515,7.515,7.515s7.515-3.365,7.515-7.515v-16.707    c17.973-1.767,32.063-16.965,32.063-35.395c0-19.613-15.956-35.569-35.57-35.569h-8.016c-11.326,0-20.54-9.214-20.54-20.54    s9.214-20.54,20.54-20.54h12.023c9.116,0,16.532,7.417,16.532,16.532v8.016C168.316,83.806,171.68,87.17,175.831,87.17z" data-original="#000000" class="active-path" data-old_color="#000000" fill="#e83e8c"/>
	</g>
</g><g>
	<g>
		<path d="M332.937,67.533c4.151,0,7.515-3.365,7.515-7.515v-5.21c0-11.984-9.156-21.87-20.841-23.03v-8.232    c0-4.15-3.364-7.515-7.515-7.515s-7.515,3.365-7.515,7.515v8.591c-11.857,2.299-20.841,12.755-20.841,25.274    c0,14.199,11.552,25.75,25.75,25.75h5.209c5.912,0,10.721,4.809,10.721,10.721c0,5.911-4.808,10.722-10.721,10.722h-7.815    c-4.475,0-8.116-3.641-8.116-8.116c0-4.15-3.364-7.515-7.515-7.515s-7.515,3.365-7.515,7.515c0,11.984,9.156,21.87,20.841,23.03    v8.231c0,4.15,3.364,7.515,7.515,7.515s7.515-3.365,7.515-7.515v-8.591c11.857-2.299,20.841-12.755,20.841-25.274    c0-14.199-11.552-25.75-25.75-25.75h-5.209c-5.911,0-10.721-4.809-10.721-10.721s4.809-10.721,10.721-10.721h7.815    c4.475,0,8.116,3.641,8.116,8.116v5.21C325.423,64.168,328.786,67.533,332.937,67.533z" data-original="#000000" class="active-path" data-old_color="#000000" fill="#0066ff"/>
	</g>
</g></g> </svg>
