<?xml version="1.0"?>
<svg xmlns="http://www.w3.org/2000/svg" xmlns:xlink="http://www.w3.org/1999/xlink" version="1" id="Staff" x="0px" y="0px" viewBox="0 0 426.224 426.224" style="enable-background:new 0 0 426.224 426.224;" xml:space="preserve" width="512px" height="512px" class=""><g><g>
	<g>
		<g>
			<path d="M167.94,113.864c0,24.949,9.759,53.752,26.106,77.048c18.524,26.398,41.921,40.936,65.881,40.936     c23.96,0,47.357-14.538,65.882-40.936c16.348-23.296,26.107-52.099,26.107-77.048c0-50.722-41.266-91.988-91.988-91.988     C209.206,21.876,167.94,63.142,167.94,113.864z M259.927,36.876c42.451,0,76.988,34.537,76.988,76.988     c0,21.655-8.961,47.876-23.385,68.432c-15.409,21.958-34.946,34.552-53.603,34.552c-18.657,0-38.195-12.594-53.603-34.552     c-14.425-20.556-23.385-46.778-23.385-68.432C182.939,71.413,217.476,36.876,259.927,36.876z" data-original="#000000" class="active-path" data-old_color="#000000" fill="#0066ff"/>
			<path d="M394.724,272.992c-16.208-25.153-39.026-45.233-65.987-58.068c-2.863-1.364-6.274-0.778-8.52,1.461     c-18.071,18.02-38.921,27.545-60.294,27.545c-21.376,0-42.221-9.524-60.281-27.544c-2.246-2.241-5.658-2.826-8.521-1.463     c-26.962,12.835-49.782,32.915-65.992,58.068c-16.651,25.837-25.452,55.812-25.452,86.686v0.13c0,2.117,0.894,4.134,2.461,5.556     c43.276,39.247,99.312,60.861,157.785,60.861c58.473,0,114.508-21.615,157.786-60.86c1.567-1.422,2.461-3.44,2.461-5.556v-0.13     C420.17,328.803,411.371,298.827,394.724,272.992z M259.923,411.224c-53.621,0-105.055-19.418-145.212-54.743     c0.583-26.856,8.514-52.847,23.026-75.364c13.767-21.361,32.788-38.686,55.227-50.357c20.045,18.452,43.094,28.17,66.959,28.17     c23.86,0,46.913-9.719,66.969-28.171c22.437,11.67,41.457,28.995,55.222,50.357c14.509,22.516,22.438,48.508,23.021,75.365     C364.978,391.807,313.544,411.224,259.923,411.224z" data-original="#000000" class="active-path" data-old_color="#000000" fill="#e83e8c"/>
			<path d="M145.302,183.17c8.413,0,16.808-2.053,24.952-6.102c3.709-1.844,5.221-6.345,3.378-10.054     c-1.843-3.709-6.344-5.221-10.054-3.378c-6.053,3.009-12.202,4.534-18.277,4.534c-15.752,0-32.296-10.703-45.389-29.364     c-12.324-17.565-19.98-39.957-19.98-58.436c0-36.045,29.325-65.37,65.37-65.37c17.014,0,33.125,6.504,45.367,18.316     c2.98,2.875,7.729,2.791,10.605-0.19c2.876-2.981,2.791-7.729-0.19-10.605C186.031,7.998,166.22,0,145.302,0     c-44.316,0-80.37,36.054-80.37,80.37c0,21.725,8.487,46.791,22.702,67.051C103.808,170.474,124.289,183.17,145.302,183.17z" data-original="#000000" class="active-path" data-old_color="#000000" fill="#e83e8c"/>
			<path d="M70.687,323.095c-18.072-7.79-34.74-18.32-49.592-31.322c0.583-22.801,7.359-44.861,19.685-63.986     c11.645-18.07,27.685-32.762,46.602-42.741c17.361,15.777,37.284,24.083,57.913,24.083c12.327,0,24.438-2.964,35.996-8.809     c3.696-1.87,5.177-6.381,3.308-10.078c-1.87-3.696-6.381-5.177-10.078-3.308c-9.44,4.774-19.273,7.194-29.227,7.194     c-18.152,0-35.879-8.112-51.263-23.459c-2.246-2.24-5.66-2.824-8.521-1.462c-23.427,11.153-43.255,28.6-57.339,50.455     c-14.469,22.452-22.117,48.5-22.117,75.328v0.11c0,2.117,0.894,4.134,2.461,5.556c16.699,15.144,35.619,27.329,56.234,36.215     c0.967,0.418,1.974,0.615,2.965,0.615c2.903,0,5.668-1.697,6.891-4.535C76.245,329.147,74.491,324.735,70.687,323.095z" data-original="#000000" class="active-path" data-old_color="#000000" fill="#0066ff"/>
			<path d="M92.046,331.164c-2.693-1.861-6.347-1.76-8.929,0.26c-2.611,2.043-3.542,5.703-2.283,8.757     c1.143,2.773,3.935,4.63,6.93,4.63c3.336,0,6.319-2.291,7.218-5.496C95.83,336.293,94.628,332.949,92.046,331.164z" data-original="#000000" class="active-path" data-old_color="#000000" fill="#e83e8c"/>
		</g>
	</g>
</g></g> </svg>
