<?xml version="1.0" standalone="no"?><!DOCTYPE svg PUBLIC "-//W3C//DTD SVG 1.1//EN" "http://www.w3.org/Graphics/SVG/1.1/DTD/svg11.dtd"><svg t="1530000267542" class="icon" style="" viewBox="0 0 1024 1024" version="1.1" xmlns="http://www.w3.org/2000/svg" p-id="12063" xmlns:xlink="http://www.w3.org/1999/xlink" width="70" height="70"><defs><style type="text/css"></style></defs><path d="M257.512727 371.688727a161.745455 161.745455 0 1 0 0 323.537455 161.745455 161.745455 0 0 0 0-323.537455z m-0.023272 256.093091a94.324364 94.324364 0 1 1 0.069818-188.625454 94.324364 94.324364 0 0 1-0.069818 188.625454zM746.216727 95.325091a161.745455 161.745455 0 0 0-161.768727 161.768727 161.745455 161.745455 0 1 0 161.768727-161.768727z m0 256.093091a94.347636 94.347636 0 1 1 0-188.672 94.347636 94.347636 0 0 1 0 188.672zM746.216727 648.098909c-89.367273 0-161.768727 72.378182-161.768727 161.745455s72.401455 161.768727 161.768727 161.768727a161.745455 161.745455 0 1 0 0-323.514182z m0 256.093091a94.347636 94.347636 0 1 1 0-188.695273 94.347636 94.347636 0 0 1 0 188.695273z" fill="#1296db" p-id="12064"></path><path d="M671.534545 341.038545l-303.522909 149.131637-30.068363-61.207273 303.522909-149.131636z" fill="#1296db" p-id="12065"></path></svg>