<?xml version="1.0" standalone="no"?><!DOCTYPE svg PUBLIC "-//W3C//DTD SVG 1.1//EN" "http://www.w3.org/Graphics/SVG/1.1/DTD/svg11.dtd"><svg t="1530000350399" class="icon" style="" viewBox="0 0 1024 1024" version="1.1" xmlns="http://www.w3.org/2000/svg" p-id="12972" xmlns:xlink="http://www.w3.org/1999/xlink" width="70" height="70"><defs><style type="text/css"></style></defs><path d="M512-0.0256c-282.7776 0-512 229.1968-512 512 0 282.752 229.2224 512 512 512s512-229.248 512-512c0-282.8032-229.2224-512-512-512z m0 979.2c-257.6128 0-467.2-209.5872-467.2-467.2S254.3872 44.7744 512 44.7744s467.2 209.5872 467.2 467.2-209.5872 467.2-467.2 467.2z" fill="#1296db" p-id="12973"></path><path d="M762.2912 563.9168H258.2016c-17.5104 0-28.0064 14.0032-28.0064 28.032 0 6.9632 3.5072 17.4848 10.496 20.992 0 3.5072 3.5072 3.5072 6.9888 6.9888l189.0304 133.0176c10.496 6.9888 28.0064 6.9888 38.528-6.9888a28.5696 28.5696 0 0 0-6.9888-38.5024l-129.536-91.0336h423.5776c14.0032 0 28.0064-10.496 28.0064-28.0064 0-10.496-10.496-24.4992-28.0064-24.4992zM783.3088 409.9072c0-3.5072-3.5072-3.5072-6.9888-6.9632l-189.0304-133.0688c-14.0032-6.9632-31.5136-3.4816-38.528 10.5216-10.496 10.5216-6.9632 28.032 6.9888 34.9952l126.0288 91.0336H258.2016c-17.5104 0-28.0064 10.496-28.0064 24.5248 0 13.9776 10.496 28.0064 28.0064 28.0064h507.5968c14.0032 0 28.0064-10.496 28.0064-28.0064 0-7.04-3.5072-17.5616-10.496-21.0432z" fill="#1296db" p-id="12974"></path></svg>