<?xml version="1.0" encoding="utf-8"?>
<!-- Generator: Adobe Illustrator 20.1.0, SVG Export Plug-In . SVG Version: 6.00 Build 0)  -->
<svg version="1.1" id="图层_1" xmlns="http://www.w3.org/2000/svg" xmlns:xlink="http://www.w3.org/1999/xlink" x="0px" y="0px"
	 viewBox="0 0 40 40" style="enable-background:new 0 0 40 40;" xml:space="preserve">
<style type="text/css">
	.st0{fill:#fff;}
</style>
<path class="st0" d="M20,40.1c-10.5,0-19-8.5-19-19s8.5-19,19-19s19,8.5,19,19S30.5,40.1,20,40.1z M20,4.1c-9.4,0-17,7.6-17,17
	s7.6,17,17,17s17-7.6,17-17S29.4,4.1,20,4.1z"/>
<path class="st0" d="M20.1,34.3c-7.3,0-13.2-5.9-13.2-13.2S12.8,7.9,20.1,7.9c7.3,0,13.2,5.9,13.2,13.2S27.4,34.3,20.1,34.3z
	 M20.1,9.9c-6.2,0-11.2,5-11.2,11.2s5,11.2,11.2,11.2s11.2-5,11.2-11.2S26.3,9.9,20.1,9.9z"/>
<g>
	<circle class="st0" cx="20.3" cy="19.3" r="3.2"/>
	<circle class="st0" cx="23.7" cy="21.5" r="2"/>
	<circle class="st0" cx="16.9" cy="21" r="2.4"/>
	<rect x="16.9" y="20.8" class="st0" width="6.9" height="2.7"/>
</g>
</svg>
