<?xml version="1.0" encoding="utf-8"?>
<!-- Generator: Adobe Illustrator 20.1.0, SVG Export Plug-In . SVG Version: 6.00 Build 0)  -->
<svg version="1.1" id="图层_1" xmlns="http://www.w3.org/2000/svg" xmlns:xlink="http://www.w3.org/1999/xlink" x="0px" y="0px"
	 viewBox="0 0 40 40" style="enable-background:new 0 0 40 40;" xml:space="preserve">
<path fill="#fff" d="M24.6,21.1h-9c-0.3,0-0.7-0.2-0.9-0.5l-4.5-7.4c-0.2-0.3-0.2-0.7,0-1l4.5-7.6c0.2-0.3,0.5-0.5,0.9-0.5h9
	c0.4,0,0.7,0.2,0.9,0.5l4.5,7.6c0.2,0.3,0.2,0.7,0,1l-4.5,7.4C25.2,20.9,24.9,21.1,24.6,21.1z M16.1,19.1H24l3.9-6.4L24,6.1h-7.9
	l-3.9,6.6L16.1,19.1z"/>
<path fill="#fff" d="M15.5,37.1h-9c-0.4,0-0.7-0.2-0.9-0.5l-4.5-7.8c-0.2-0.3-0.2-0.7,0-1l4.5-8.2c0.2-0.3,0.5-0.5,0.9-0.5h9
	c0.4,0,0.7,0.2,0.9,0.5l4.5,8.2c0.2,0.3,0.2,0.7,0,1l-4.5,7.8C16.2,36.9,15.9,37.1,15.5,37.1z M7.1,35.1h7.8l3.9-6.8l-3.9-7.2H7.1
	l-4,7.2L7.1,35.1z"/>
<path fill="#fff" d="M34,37.1H24c-0.4,0-0.8-0.3-0.9-0.6l-3-7.8c-0.1-0.2-0.1-0.5,0-0.7l3-8.2c0.1-0.4,0.5-0.7,0.9-0.7h10c0.4,0,0.7,0.2,0.9,0.6
	l4,8.2c0.1,0.3,0.1,0.6,0,0.9l-4,7.8C34.7,36.9,34.4,37.1,34,37.1z M24.7,35.1h8.7l3.5-6.8l-3.5-7.2h-8.7l-2.6,7.2L24.7,35.1z"/>
</svg>
