<?xml version="1.0" encoding="utf-8"?>
<!-- Generator: Adobe Illustrator 20.1.0, SVG Export Plug-In . SVG Version: 6.00 Build 0)  -->
<svg version="1.1" id="图层_1" xmlns="http://www.w3.org/2000/svg" xmlns:xlink="http://www.w3.org/1999/xlink" x="0px" y="0px"
	 viewBox="0 0 40 40" style="enable-background:new 0 0 40 40;" xml:space="preserve">
<style type="text/css">
	.st0{fill:#fff;}
</style>
<path class="st0" d="M39,39.8l-10.3-5.7H1v-33h38V39.8z M3,32.1h26.3l7.7,4.3V3.1H3V32.1z"/>
<path class="st0" d="M20,27.1c-0.6,0-1-0.4-1-1v-12c0-0.6,0.4-1,1-1s1,0.4,1,1v12C21,26.6,20.6,27.1,20,27.1z"/>
<path class="st0" d="M28,27.1c-0.6,0-1-0.4-1-1v-8c0-0.6,0.4-1,1-1s1,0.4,1,1v8C29,26.6,28.6,27.1,28,27.1z"/>
<path class="st0" d="M12,27.1c-0.6,0-1-0.4-1-1v-16c0-0.6,0.4-1,1-1s1,0.4,1,1v16C13,26.6,12.6,27.1,12,27.1z"/>
</svg>
